<?xml version="1.0" encoding="UTF-8" standalone="no"?><!DOCTYPE svg PUBLIC "-//W3C//DTD SVG 1.1//EN" "http://www.w3.org/Graphics/SVG/1.1/DTD/svg11.dtd">


<svg width="100%" height="100%" viewBox="0 0 625 625" version="1.1" xmlns="http://www.w3.org/2000/svg" xmlns:xlink="http://www.w3.org/1999/xlink" xml:space="preserve" xmlns:serif="http://www.serif.com/" style="fill-rule:evenodd;clip-rule:evenodd;stroke-linejoin:round;stroke-miterlimit:2;"><rect id="Lupe" x="0" y="-0" width="625" height="625" style="fill:none;"/><g id="Lupe1" serif:id="Lupe"><path d="M427.251,350.529l-72.584,81.632l156.268,138.946l72.584,-81.633l-156.268,-138.945Z"/><path d="M143.674,174.96c62.379,-70.156 169.981,-76.47 240.136,-14.091c70.156,62.379 76.47,169.981 14.091,240.137c-62.379,70.155 -169.98,76.469 -240.136,14.09c-70.156,-62.379 -76.47,-169.98 -14.091,-240.136Z" style="fill:#a7baf1;"/><path d="M189.236,171.027c0.485,-23.094 79.701,-48.216 139.07,-24.064c57.536,23.407 105.408,103.738 90.032,123.628c-8.998,11.64 -34.775,-55.581 -107.264,-82.754c-64.068,-24.016 -122.063,-6.101 -121.838,-16.81Z" style="fill:#d3dfff;"/><path d="M83.959,121.865c91.683,-103.114 249.833,-112.394 352.947,-20.71c103.113,91.683 112.393,249.833 20.71,352.946c-91.683,103.113 -249.833,112.393 -352.947,20.71c-103.113,-91.683 -112.393,-249.833 -20.71,-352.946Zm62.276,55.372c-61.121,68.743 -54.935,174.176 13.807,235.298c68.742,61.122 174.176,54.935 235.298,-13.807c61.122,-68.742 54.935,-174.175 -13.807,-235.297c-68.742,-61.122 -174.175,-54.936 -235.298,13.806Z"/><path d="M508.743,496.072c20.03,-22.527 54.581,-24.554 77.108,-4.524c22.527,20.03 24.555,54.581 4.525,77.108c-20.03,22.527 -54.581,24.554 -77.108,4.524c-22.528,-20.03 -24.555,-54.581 -4.525,-77.108Z"/></g></svg>