<?xml version="1.0" encoding="UTF-8" standalone="no"?>
<!DOCTYPE svg PUBLIC "-//W3C//DTD SVG 1.1//EN" "http://www.w3.org/Graphics/SVG/1.1/DTD/svg11.dtd">
<svg width="100%" height="100%" viewBox="0 0 490 217" version="1.1" xmlns="http://www.w3.org/2000/svg" xmlns:xlink="http://www.w3.org/1999/xlink" xml:space="preserve" xmlns:serif="http://www.serif.com/" style="fill-rule:evenodd;clip-rule:evenodd;stroke-linecap:round;stroke-linejoin:round;stroke-miterlimit:1.5;">
    <g>
        <path d="M8,209l83,-55" style="fill:none;stroke:#cfcfcf;stroke-width:15px;"/>
        <path d="M6.263,15.296c-4.027,-0.959 -6.518,-5.006 -5.559,-9.033c0.959,-4.027 5.006,-6.518 9.033,-5.559l84,20c4.027,0.959 6.518,5.006 5.559,9.033c-0.959,4.027 -5.006,6.518 -9.033,5.559l-84,-20Z" style="fill:#cfcfcf;"/>
        <path d="M479.651,20.882c2.824,0 5.117,2.294 5.117,5.118c0,2.824 -2.293,5.118 -5.117,5.118c-0,-0 -72.656,0.52 -155.061,0.686c-94.272,0.19 -201.3,-0.023 -226.885,-0.08c0,0 -0.123,116.706 -0.123,116.706l384.418,0.452c2.824,0 5.118,2.294 5.118,5.118c-0,2.824 -2.294,5.118 -5.118,5.118l-390,0.459c-3.08,-0 -5.577,-2.497 -5.577,-5.577l-0.134,-128c-0,-3.154 2.557,-5.711 5.711,-5.711c-0,-0 124.656,-0.311 232.59,-0.093c82.405,0.166 155.061,0.686 155.061,0.686Z" style="fill:#cfcfcf;"/>
        <path d="M7,49.618l63,9.882l-0,59.294l-63,13.588l0,-82.764Zm6.324,7.244c0.186,7.838 0.464,20.985 0.594,34.138c0.122,12.422 0.111,24.844 0.083,32.789c-0,0 49.304,-10.446 49.304,-10.446l0.219,-48.356l-50.2,-8.125Z" style="fill:#cfcfcf;"/>
        <path d="M36.418,59.5c-0,-1.977 1.605,-3.582 3.582,-3.582c1.977,-0 3.582,1.605 3.582,3.582c0,-0 0.405,4.852 0.519,11.8c0.284,17.218 -0.519,47.2 -0.519,47.2c0,1.977 -1.605,3.582 -3.582,3.582c-1.977,0 -3.582,-1.605 -3.582,-3.582c-0,-0 -0.803,-29.982 -0.519,-47.2c0.114,-6.948 0.519,-11.8 0.519,-11.8Z" style="fill:#cfcfcf;"/>
        <path d="M11,94.582c-1.977,0 -3.582,-1.605 -3.582,-3.582c-0,-1.977 1.605,-3.582 3.582,-3.582c-0,-0 4.439,-0.405 10.8,-0.519c15.759,-0.284 43.2,0.519 43.2,0.519c1.977,-0 3.582,1.605 3.582,3.582c0,1.977 -1.605,3.582 -3.582,3.582c-0,0 -27.441,0.803 -43.2,0.519c-6.361,-0.114 -10.8,-0.519 -10.8,-0.519Z" style="fill:#cfcfcf;"/>
    </g>
</svg>
