<?xml version="1.0" encoding="UTF-8" standalone="no"?>
<!DOCTYPE svg PUBLIC "-//W3C//DTD SVG 1.1//EN" "http://www.w3.org/Graphics/SVG/1.1/DTD/svg11.dtd">
<svg width="100%" height="100%" viewBox="0 0 400 125" version="1.1" xmlns="http://www.w3.org/2000/svg" xmlns:xlink="http://www.w3.org/1999/xlink" xml:space="preserve" xmlns:serif="http://www.serif.com/" style="fill-rule:evenodd;clip-rule:evenodd;stroke-linejoin:round;stroke-miterlimit:2;">
    <rect id="ArtBoard1" x="-352" y="-457" width="1340" height="800" style="fill:none;"/>
    <g id="ArtBoard11" serif:id="ArtBoard1">
        <g>
            <g>
                <g>
                    <path d="M399.409,21.882l0,82c0,11.272 -9.137,20.409 -20.409,20.409l-358,0c-11.272,0 -20.409,-9.137 -20.409,-20.409l-0,-82c-0,-11.272 9.137,-20.409 20.409,-20.409l358,0c11.272,0 20.409,9.137 20.409,20.409Zm-10.235,0c-0.006,-2.805 -1.163,-5.335 -3.005,-7.169c-1.836,-1.827 -4.374,-2.941 -7.169,-2.935l-358,0.765c-2.575,0.005 -4.898,1.066 -6.582,2.757c-1.679,1.685 -2.702,4.016 -2.697,6.582l0.155,82c0.005,2.515 1.043,4.785 2.694,6.43c1.646,1.64 3.923,2.638 6.43,2.633c-0,0 145.148,-0.503 250.6,-0.349c60.161,0.088 107.4,0.463 107.4,0.463c2.551,0.02 4.89,-0.943 6.575,-2.602c1.709,-1.682 2.837,-3.988 2.859,-6.575l0.74,-82Z" style="fill:#dd4141;"/>
                    <path d="M73.347,40.179l-18.525,-0l0,61.899l-15.298,0l0,-61.899l-18.524,-0l0,-14.844l52.347,0l-0,14.844Z" style="fill:#dd4141;fill-rule:nonzero;"/>
                    <path d="M126.331,102.078l-14.342,0l-0,-6.391c-2.656,2.612 -5.086,4.596 -7.29,5.953c-2.205,1.357 -4.834,2.036 -7.888,2.036c-4.94,-0 -8.744,-1.838 -11.414,-5.515c-2.669,-3.676 -4.003,-9.105 -4.003,-16.286l-0,-37.676l14.421,-0l-0,28.708c-0,2.92 0.073,5.351 0.219,7.293c0.146,1.941 0.485,3.547 1.016,4.818c0.505,1.272 1.268,2.2 2.291,2.784c1.022,0.584 2.45,0.876 4.282,0.876c1.222,-0 2.576,-0.292 4.064,-0.876c1.487,-0.584 2.921,-1.443 4.302,-2.577l-0,-41.026l14.342,-0l-0,57.879Z" style="fill:#dd4141;fill-rule:nonzero;"/>
                    <path d="M168.479,101.563c-1.541,0.515 -3.174,0.919 -4.9,1.211c-1.727,0.292 -3.838,0.438 -6.335,0.438c-5.577,0 -9.727,-1.46 -12.449,-4.381c-2.722,-2.92 -4.083,-7.92 -4.083,-14.998l-0,-27.058l-5.896,-0l-0,-12.576l5.896,-0l-0,-16.544l14.341,-0l0,16.544l13.426,-0l-0,12.576l-13.426,-0l0,20.513c0,2.027 0.014,3.796 0.04,5.308c0.027,1.512 0.239,2.869 0.638,4.072c0.371,1.202 1.029,2.156 1.972,2.86c0.942,0.705 2.317,1.057 4.123,1.057c0.743,-0 1.719,-0.206 2.928,-0.619c1.208,-0.412 2.051,-0.79 2.53,-1.134l1.195,0l-0,12.731Z" style="fill:#dd4141;fill-rule:nonzero;"/>
                    <path d="M222.777,73.164c0,9.518 -2.144,17.017 -6.434,22.497c-4.289,5.481 -10.311,8.221 -18.066,8.221c-7.755,0 -13.777,-2.74 -18.066,-8.221c-4.289,-5.48 -6.434,-12.979 -6.434,-22.497c0,-9.586 2.158,-17.111 6.474,-22.574c4.315,-5.463 10.324,-8.195 18.026,-8.195c7.808,-0 13.844,2.749 18.106,8.246c4.263,5.498 6.394,13.006 6.394,22.523Zm-17.648,14.071c0.93,-1.478 1.627,-3.256 2.092,-5.335c0.464,-2.078 0.697,-4.956 0.697,-8.633c-0,-3.401 -0.239,-6.253 -0.717,-8.555c-0.478,-2.302 -1.142,-4.141 -1.992,-5.515c-0.85,-1.409 -1.872,-2.405 -3.068,-2.989c-1.195,-0.584 -2.483,-0.876 -3.864,-0.876c-1.381,-0 -2.609,0.24 -3.685,0.721c-1.075,0.481 -2.105,1.443 -3.087,2.886c-0.877,1.34 -1.574,3.179 -2.092,5.515c-0.518,2.337 -0.777,5.274 -0.777,8.813c0,3.162 0.226,5.902 0.678,8.221c0.451,2.319 1.115,4.183 1.992,5.592c0.849,1.34 1.865,2.319 3.047,2.938c1.182,0.618 2.53,0.928 4.044,0.928c1.301,-0 2.543,-0.284 3.724,-0.851c1.182,-0.567 2.185,-1.52 3.008,-2.86Z" style="fill:#dd4141;fill-rule:nonzero;"/>
                    <path d="M265.483,61.877l-1.275,0c-0.611,-0.275 -1.593,-0.481 -2.948,-0.618c-1.354,-0.138 -2.483,-0.207 -3.386,-0.207c-2.045,0 -3.851,0.172 -5.418,0.516c-1.567,0.343 -3.253,0.928 -5.059,1.752l-0,38.758l-14.342,0l0,-57.879l14.342,-0l-0,8.504c3.16,-3.505 5.909,-5.833 8.246,-6.984c2.337,-1.151 4.489,-1.726 6.454,-1.726c0.505,-0 1.076,0.017 1.713,0.051c0.637,0.035 1.195,0.086 1.673,0.155l0,17.678Z" style="fill:#dd4141;fill-rule:nonzero;"/>
                    <path d="M287.952,102.078l-14.342,0l-0,-57.879l14.342,-0l-0,57.879Zm0.398,-66.126l-15.138,0l-0,-14.07l15.138,0l-0,14.07Z" style="fill:#dd4141;fill-rule:nonzero;"/>
                    <path d="M328.586,86.977l-0,-12.06c-1.939,0.206 -4.037,0.489 -6.294,0.85c-2.258,0.361 -3.971,0.782 -5.14,1.263c-1.434,0.584 -2.529,1.434 -3.286,2.551c-0.757,1.117 -1.136,2.586 -1.136,4.407c0,1.202 0.08,2.182 0.24,2.937c0.159,0.756 0.557,1.478 1.195,2.165c0.61,0.687 1.341,1.194 2.191,1.521c0.85,0.326 2.177,0.489 3.983,0.489c1.435,0 2.889,-0.378 4.363,-1.134c1.474,-0.756 2.768,-1.752 3.884,-2.989Zm-0,8.968c-0.77,0.756 -1.726,1.666 -2.868,2.732c-1.142,1.065 -2.218,1.907 -3.227,2.525c-1.408,0.825 -2.869,1.435 -4.382,1.83c-1.514,0.395 -3.174,0.592 -4.98,0.592c-4.249,0 -7.808,-1.7 -10.677,-5.102c-2.868,-3.402 -4.302,-7.748 -4.302,-13.04c-0,-4.226 0.73,-7.679 2.191,-10.359c1.461,-2.68 3.532,-4.793 6.215,-6.34c2.656,-1.546 5.949,-2.645 9.879,-3.298c3.931,-0.653 8.008,-1.134 12.231,-1.443l-0,-0.309c-0,-3.196 -1.01,-5.404 -3.028,-6.623c-2.019,-1.22 -4.993,-1.83 -8.924,-1.83c-2.363,-0 -4.886,0.541 -7.569,1.623c-2.682,1.083 -4.608,1.916 -5.776,2.5l-1.315,0l0,-13.967c1.514,-0.516 3.977,-1.125 7.39,-1.83c3.413,-0.704 6.832,-1.056 10.258,-1.056c8.153,-0 14.043,1.623 17.668,4.87c3.625,3.247 5.438,8.341 5.438,15.282l-0,39.376l-14.222,0l-0,-6.133Z" style="fill:#dd4141;fill-rule:nonzero;"/>
                    <rect x="355.994" y="21.882" width="14.342" height="80.196" style="fill:#dd4141;fill-rule:nonzero;"/>
                </g>
            </g>
        </g>
    </g>
</svg>
