<?xml version="1.0" encoding="UTF-8" standalone="no"?>
<!DOCTYPE svg PUBLIC "-//W3C//DTD SVG 1.1//EN" "http://www.w3.org/Graphics/SVG/1.1/DTD/svg11.dtd">
<svg width="100%" height="100%" viewBox="0 0 581 207" version="1.1" xmlns="http://www.w3.org/2000/svg" xmlns:xlink="http://www.w3.org/1999/xlink" xml:space="preserve" xmlns:serif="http://www.serif.com/" style="fill-rule:evenodd;clip-rule:evenodd;stroke-linecap:round;stroke-linejoin:round;stroke-miterlimit:1.5;">
    <g>
        <path d="M3,204l84,-68" style="fill:none;stroke:#cfcfcf;stroke-width:6px;"/>
        <path d="M2.305,5.918c-1.611,-0.383 -2.607,-2.002 -2.223,-3.613c0.383,-1.611 2.002,-2.607 3.613,-2.223l84,20c1.611,0.383 2.607,2.002 2.223,3.613c-0.383,1.611 -2.002,2.607 -3.613,2.223l-84,-20Z" style="fill:#cfcfcf;"/>
        <path d="M578,3l-78,20" style="fill:none;stroke:#cfcfcf;stroke-width:6px;"/>
        <path d="M578,204l-78,-68" style="fill:none;stroke:#cfcfcf;stroke-width:6px;"/>
        <path d="M83,20l420,0l-0,119l-420,-0l-0,-119Zm7.5,7.5l0,104l405,0l-0,-104l-405,0Z" style="fill:#cfcfcf;"/>
        <path d="M8,49l49,8l0,48l-49,11l0,-67Zm5.266,6.077c0.18,7.728 0.471,21.576 0.573,34.123c0.061,7.533 0.045,14.596 0.016,19.578c-0,-0 37.567,-8.282 37.567,-8.282c0,-0 0.185,-38.958 0.185,-38.958l-38.341,-6.461Z" style="fill:#cfcfcf;"/>
        <path d="M30.965,56c-0,-0.847 0.688,-1.535 1.535,-1.535c0.847,-0 1.535,0.688 1.535,1.535c0,0 0.174,4.202 0.223,10.2c0.121,14.883 -0.223,40.8 -0.223,40.8c0,0.847 -0.688,1.535 -1.535,1.535c-0.847,0 -1.535,-0.688 -1.535,-1.535c-0,0 -0.344,-25.917 -0.223,-40.8c0.049,-5.998 0.223,-10.2 0.223,-10.2Z" style="fill:#cfcfcf;"/>
        <path d="M11,84.035c-0.847,0 -1.535,-0.688 -1.535,-1.535c-0,-0.847 0.688,-1.535 1.535,-1.535c-0,-0 3.542,-0.174 8.6,-0.223c12.549,-0.121 34.4,0.223 34.4,0.223c0.847,-0 1.535,0.688 1.535,1.535c0,0.847 -0.688,1.535 -1.535,1.535c-0,0 -21.851,0.344 -34.4,0.223c-5.058,-0.049 -8.6,-0.223 -8.6,-0.223Z" style="fill:#cfcfcf;"/>
        <path d="M577,48l0,67l-58,-11l0,-48l58,-8Zm-5.253,5.919c-0,0 -47.333,6.756 -47.333,6.756c0,0 0.168,38.665 0.168,38.665c0,-0 46.568,8.665 46.568,8.665c-0.018,-4.993 -0.023,-12.156 0.042,-19.805c0.108,-12.633 0.386,-26.585 0.555,-34.281Z" style="fill:#cfcfcf;"/>
        <path d="M545.965,55c-0,-0.847 0.688,-1.535 1.535,-1.535c0.847,-0 1.535,0.688 1.535,1.535c0,-0 0.174,4.202 0.223,10.2c0.121,14.883 -0.223,40.8 -0.223,40.8c0,0.847 -0.688,1.535 -1.535,1.535c-0.847,0 -1.535,-0.688 -1.535,-1.535c-0,-0 -0.344,-25.917 -0.223,-40.8c0.049,-5.998 0.223,-10.2 0.223,-10.2Z" style="fill:#cfcfcf;"/>
        <path d="M572.51,79.965c0.848,-0 1.535,0.688 1.535,1.535c0,0.847 -0.687,1.535 -1.535,1.535c0,0 -4.121,0.174 -10.004,0.223c-14.597,0.121 -40.016,-0.223 -40.016,-0.223c-0.848,0 -1.535,-0.688 -1.535,-1.535c-0,-0.847 0.687,-1.535 1.535,-1.535c-0,-0 25.419,-0.344 40.016,-0.223c5.883,0.049 10.004,0.223 10.004,0.223Z" style="fill:#cfcfcf;"/>
    </g>
</svg>
